<svg width="31" height="42" viewBox="0 0 31 42" fill="none" xmlns="http://www.w3.org/2000/svg">
<path d="M15.3548 0C6.8881 0 0 7.01188 0 15.6307C0 20.4517 2.4383 26.3032 7.2474 33.0227C10.7667 37.9403 14.2347 41.4475 14.3806 41.5945C14.6488 41.8646 15.0017 42 15.3551 42C15.6981 42 16.0414 41.8722 16.3075 41.6158C16.4538 41.475 19.9305 38.1098 23.4565 33.2601C28.2694 26.6401 30.7098 20.7087 30.7098 15.6306C30.7096 7.01188 23.8214 0 15.3548 0ZM15.3548 22.3787C11.2155 22.3787 7.84803 19.0111 7.84803 14.8719C7.84803 10.7327 11.2156 7.36511 15.3548 7.36511C19.494 7.36511 22.8616 10.7327 22.8616 14.8719C22.8616 19.0111 19.494 22.3787 15.3548 22.3787Z" fill="#D90B0B"/>
</svg>
