<svg width="890" height="643" viewBox="0 0 890 643" fill="none" xmlns="http://www.w3.org/2000/svg">
<path d="M144.875 643H144.158C107.004 643 71.74 641.152 44.8629 637.797L43.7789 637.655C43.0437 637.559 42.3176 637.462 41.6006 637.364C37.3821 636.808 33.2536 636.184 29.3332 635.51C9.86845 632.12 0 628.08 0 623.502C0 619.704 6.47282 616.394 19.7885 613.382C26.195 611.934 34.1039 610.599 43.2952 609.414C44.9695 609.19 46.6934 608.982 48.4562 608.782C74.7841 605.701 108.772 604.004 144.158 604.004C151.152 604.004 158.23 604.071 165.195 604.204C224.493 605.341 288.315 611.864 288.315 623.502C288.315 630.453 265.239 634.939 245.881 637.478C218.933 641.012 183.062 642.974 144.875 643ZM144.158 605.546C108.83 605.546 74.9057 607.239 48.6331 610.313C46.8779 610.513 45.1654 610.723 43.4958 610.943C34.3486 612.122 26.4879 613.448 20.1288 614.886C3.35272 618.68 1.54179 622.175 1.54179 623.502C1.54179 625.187 4.27532 629.582 29.5959 633.991C33.4949 634.661 37.6034 635.282 41.8064 635.837C42.5235 635.935 43.2474 636.03 43.9791 636.126L45.0598 636.268C71.8699 639.615 107.065 641.458 144.158 641.458H144.875C229.755 641.399 286.773 632.126 286.773 623.502C286.773 615.919 241.286 607.204 165.165 605.746C158.211 605.613 151.142 605.546 144.158 605.546Z" fill="#3F3D56"/>
<path d="M241.676 623.502C241.676 633.818 204.108 642.175 157.685 642.229H157.263C134.603 642.229 114.026 640.248 98.8635 637.033C98.2145 636.886 97.5746 636.747 96.9483 636.601C94.3705 636.023 91.9607 635.398 89.7414 634.75C79.1353 631.613 72.8497 627.719 72.8497 623.502C72.8497 620.086 76.9615 616.894 84.1457 614.134C88.6406 612.477 93.2521 611.155 97.9422 610.179C98.9271 609.956 99.9391 609.747 100.974 609.547C115.91 606.579 135.638 604.775 157.263 604.775C161.465 604.775 165.6 604.844 169.639 604.975C210.389 606.301 241.676 614.088 241.676 623.502Z" fill="#3F3D56"/>
<path d="M114.809 453.804L118.411 481.908C118.411 481.908 119.852 491.276 121.294 496.321C121.294 496.321 119.852 522.984 131.381 541.721L138.587 555.413L140.028 575.591L158.042 577.752L154.439 547.486C154.439 547.486 152.998 533.073 154.439 527.308C155.88 521.543 147.233 494.88 147.233 494.88C147.233 494.88 158.762 457.407 150.116 448.038C141.469 438.67 114.809 453.804 114.809 453.804Z" fill="#A0616A"/>
<path d="M146.513 569.825C146.513 569.825 138.587 569.825 137.866 571.987C137.146 574.149 125.617 593.606 125.617 593.606C125.617 593.606 115.529 609.46 129.94 610.181C144.351 610.902 148.674 604.416 148.674 604.416C148.674 604.416 161.644 583.518 162.365 579.914C163.085 576.311 156.951 568.589 156.951 568.589C156.951 568.589 148.674 574.149 146.513 569.825Z" fill="#2F2E41"/>
<path d="M156.601 216.715C170.131 216.715 181.099 205.745 181.099 192.214C181.099 178.682 170.131 167.712 156.601 167.712C143.07 167.712 132.102 178.682 132.102 192.214C132.102 205.745 143.07 216.715 156.601 216.715Z" fill="#A0616A"/>
<path d="M136.785 199.78C136.785 199.78 136.785 226.444 127.418 228.606C118.051 230.768 140.388 255.269 152.638 252.387C164.887 249.504 169.931 230.047 169.931 230.047C169.931 230.047 159.122 216.355 163.446 209.149C167.769 201.942 136.785 199.78 136.785 199.78Z" fill="#A0616A"/>
<path d="M147.233 236.893C143.794 236.785 140.43 235.856 137.423 234.183C134.416 232.51 131.853 230.142 129.947 227.277C129.947 227.277 119.852 228.966 118.411 229.687C116.97 230.407 91.7509 238.334 85.9865 254.909L109.044 284.455C109.044 284.455 104 326.251 109.044 344.988C112.048 356.21 111.288 368.108 106.882 378.858C106.882 378.858 104.721 379.578 108.324 381.02C111.926 382.461 194.79 365.886 196.231 361.562C197.672 357.239 194.79 357.239 196.951 355.077C199.113 352.915 204.878 339.943 199.113 335.62C193.349 331.296 189.746 283.734 189.746 283.734L204.878 245.54C204.878 245.54 177.223 223.436 167.272 226.201C167.272 226.201 165.247 236.893 147.233 236.893Z" fill="#D0CDE1"/>
<path d="M156.601 439.391C156.601 439.391 155.159 471.099 158.042 483.349C160.924 495.6 160.924 500.645 160.924 500.645C160.924 500.645 156.601 521.543 158.762 541C160.924 560.457 156.24 591.82 156.24 591.82L173.894 597.21L184.702 542.441C184.702 542.441 193.349 508.572 188.305 492.718C188.305 492.718 191.187 444.435 193.349 439.391C195.51 434.346 156.601 439.391 156.601 439.391Z" fill="#A0616A"/>
<path d="M137.266 196.577C137.59 194.279 138.277 191.772 140.237 190.528C142.271 189.237 144.897 189.767 147.3 189.943C149.703 190.118 152.647 189.517 153.437 187.241C153.93 185.821 153.397 184.125 154.166 182.834C155.388 180.779 159.121 181.014 159.765 178.711C159.969 177.982 159.771 177.168 160.065 176.47C160.462 175.529 161.577 175.154 162.572 174.923C166.211 174.081 169.949 173.752 173.679 173.944C174.044 174.01 174.42 173.935 174.733 173.736C174.897 173.572 175.015 173.368 175.073 173.143C175.917 170.62 175.023 167.757 173.344 165.693C171.561 163.706 169.362 162.135 166.904 161.091C161.462 158.452 155.562 156.884 149.527 156.473C144.931 156.184 140.107 156.685 136.192 159.11C135.032 159.844 133.955 160.703 132.981 161.67C128.722 165.941 125.945 171.466 125.059 177.432C124.199 183.384 124.865 189.458 126.994 195.082C128.238 198.468 130.2 201.965 133.235 204.051C134.862 205.169 136.265 206.202 136.941 204.303C137.657 202.289 136.95 198.809 137.266 196.577Z" fill="#2F2E41"/>
<path d="M110.485 374.534C110.485 374.534 99.6769 388.947 101.839 399.035C104 409.124 111.926 425.699 111.926 425.699C111.926 425.699 107.603 458.127 114.809 458.127C122.014 458.127 152.998 456.686 153.718 453.083C154.439 449.48 151.557 413.448 151.557 413.448C151.557 413.448 155.159 445.156 157.321 445.156C159.483 445.156 196.951 448.759 198.393 446.597C199.834 444.435 202.716 388.947 202.716 388.947C202.716 388.947 206.646 362.777 194.233 359.287C181.82 355.797 110.485 374.534 110.485 374.534Z" fill="#2F2E41"/>
<path d="M168.129 591.444C168.129 591.444 155.159 584.238 154.439 590.003C153.718 595.768 145.792 616.667 145.792 616.667C145.792 616.667 137.866 633.241 155.159 633.962C172.453 634.682 176.776 626.756 176.776 623.152C176.776 619.549 174.838 594.829 174.838 594.829L168.129 591.444Z" fill="#2F2E41"/>
<path d="M212.804 284.455L216.406 316.163C216.406 316.163 220.73 333.458 217.848 340.664C214.965 347.87 204.157 381.02 204.157 381.02C204.157 381.02 201.275 363.004 194.069 360.842L198.393 319.766C198.393 319.766 188.076 294.133 190.352 290.735C192.628 287.337 212.804 284.455 212.804 284.455Z" fill="#A0616A"/>
<path d="M84.5453 286.617L85.9864 315.442C85.9864 315.442 80.9425 340.664 91.0303 367.328L92.4714 378.858L101.839 396.874C101.839 396.874 104 379.578 108.324 379.578C108.324 379.578 104 368.048 105.441 361.562C106.882 355.077 104.721 320.486 104.721 320.486L108.324 292.504L84.5453 286.617Z" fill="#A0616A"/>
<path d="M196.951 244.82H204.878C204.878 244.82 223.612 288.058 216.406 288.779C209.201 289.499 186.143 295.264 185.423 292.382C184.702 289.499 196.951 244.82 196.951 244.82Z" fill="#D0CDE1"/>
<path d="M92.4714 248.423L85.9865 254.909C85.9865 254.909 77.3398 287.337 83.8248 290.94C90.3098 294.544 114.809 298.867 116.25 295.985C117.691 293.102 92.4714 248.423 92.4714 248.423Z" fill="#D0CDE1"/>
<path d="M74.5744 607.123L73.7471 606.813C73.5653 606.744 55.4703 599.811 46.9938 584.089C38.517 568.367 42.6677 549.437 42.7106 549.248L42.906 548.386L43.7329 548.696C43.9147 548.765 62.0094 555.698 70.4862 571.42C78.9631 587.142 74.8123 606.072 74.7694 606.261L74.5744 607.123ZM48.3512 583.357C55.5177 596.65 69.8169 603.464 73.4399 605.019C74.1288 601.136 76.289 585.431 69.1289 572.152C61.9695 558.873 47.6646 552.049 44.0401 550.49C43.3509 554.375 41.1914 570.078 48.3512 583.357Z" fill="#3F3D56"/>
<path d="M53.4718 578.574C68.7052 587.74 74.572 605.946 74.572 605.946C74.572 605.946 55.7407 609.291 40.5074 600.125C25.274 590.959 19.4072 572.753 19.4072 572.753C19.4072 572.753 38.2385 569.408 53.4718 578.574Z" fill="#E8E8E8"/>
<path d="M633.292 24.9245V579.543C633.296 583.145 632.519 586.705 631.014 589.977C629.508 593.25 627.311 596.156 624.573 598.496C620.101 602.35 614.391 604.464 608.488 604.451H384.426C379.486 604.457 374.658 602.982 370.565 600.215C367.193 597.924 364.433 594.842 362.526 591.239C360.619 587.636 359.622 583.62 359.623 579.543V24.9245C359.615 21.6591 360.25 18.4241 361.493 15.4042C362.735 12.3843 364.56 9.6387 366.863 7.32419C369.166 5.00969 371.903 3.1716 374.916 1.91491C377.93 0.658214 381.161 0.00752464 384.426 0H417.957V4.32092C417.943 9.75067 420.087 14.9635 423.916 18.8129C427.745 22.6622 432.946 24.8329 438.375 24.8475H552.335C556.697 24.8558 560.945 23.451 564.442 20.8431C565.15 20.3255 565.822 19.7594 566.452 19.149C568.448 17.2307 570.036 14.928 571.119 12.3796C572.202 9.8312 572.758 7.0899 572.753 4.32092V0H608.488C611.754 0.00680882 614.986 0.657011 617.999 1.91345C621.013 3.16989 623.75 5.00795 626.054 7.3226C628.357 9.63725 630.182 12.3831 631.424 15.4033C632.666 18.4235 633.3 21.6589 633.292 24.9245Z" fill="#3F3D56"/>
<path opacity="0.1" d="M499.344 497.399C536.975 497.399 567.481 491.297 567.481 483.77C567.481 476.242 536.975 470.14 499.344 470.14C461.712 470.14 431.206 476.242 431.206 483.77C431.206 491.297 461.712 497.399 499.344 497.399Z" fill="black"/>
<path d="M890 354.748H499.344V392.923V451.06V483.77L532.05 451.06H890V354.748Z" fill="#E8E8E8"/>
<path d="M829.13 376.554H560.213V398.361H829.13V376.554Z" fill="white"/>
<path d="M829.13 409.264H560.213V431.07H829.13V409.264Z" fill="white"/>
<path d="M597.961 142.223C598.416 140.019 598.259 137.733 597.506 135.612C596.754 133.491 595.435 131.617 593.693 130.193C591.951 128.769 589.852 127.849 587.624 127.533C585.396 127.218 583.124 127.519 581.055 128.403C578.079 124.615 573.971 121.876 569.33 120.584C564.689 119.293 559.757 119.517 555.252 121.223C550.965 116.374 545.307 112.942 539.027 111.381C532.746 109.819 526.14 110.202 520.082 112.479C514.024 114.755 508.8 118.818 505.102 124.13C501.404 129.441 499.407 135.751 499.374 142.223H597.961Z" fill="#EFEFEF"/>
<path d="M458.439 185.992C458.439 179.505 456.465 173.172 452.78 167.835C449.094 162.497 443.872 158.408 437.807 156.11C431.741 153.813 425.12 153.416 418.824 154.973C412.528 156.53 406.854 159.966 402.558 164.825C397.2 162.797 391.273 162.875 385.971 165.045C380.669 167.215 376.387 171.315 373.988 176.518C370.841 175.976 367.607 176.679 364.969 178.478C362.331 180.277 360.495 183.031 359.849 186.158H458.437C458.437 186.103 458.439 186.048 458.439 185.992Z" fill="#EFEFEF"/>
<path d="M581.909 221.633C581.909 216.197 580.255 210.89 577.167 206.418C574.079 201.945 569.702 198.518 564.62 196.593C559.537 194.668 553.989 194.335 548.713 195.64C543.437 196.944 538.683 199.824 535.083 203.896C530.593 202.196 525.626 202.262 521.183 204.08C516.74 205.898 513.152 209.334 511.142 213.694C508.505 213.24 505.795 213.829 503.584 215.336C501.374 216.844 499.835 219.152 499.294 221.772H581.907C581.907 221.726 581.909 221.679 581.909 221.633Z" fill="#EFEFEF"/>
<path d="M522.004 182.254L519.678 179.761L516.114 183.086L519.438 186.651L522.004 184.258L523.003 183.326L522.004 182.254ZM519.455 186.122L516.643 183.103L519.658 180.29L522.004 182.803L522.473 183.306L522.004 183.745L519.455 186.122Z" fill="#EFEFEF"/>
<path d="M552.293 159.791L548.728 163.116L552.053 166.68L555.617 163.355L552.293 159.791ZM549.258 163.132L552.273 160.32L555.088 163.335L552.07 166.151L549.258 163.132Z" fill="#EFEFEF"/>
<path d="M417.467 238.977L413.903 242.302L417.227 245.867L420.792 242.542L417.467 238.977ZM414.432 242.322L417.447 239.506L420.263 242.525L417.247 245.338L414.432 242.322Z" fill="#EFEFEF"/>
<path d="M557.281 253.805L555.248 251.625L551.684 254.95L555.008 258.515L557.281 256.395L558.573 255.19L557.281 253.805ZM555.028 257.985L552.213 254.97L555.228 252.154L557.281 254.354L558.044 255.173L557.281 255.885L555.028 257.985Z" fill="#EFEFEF"/>
<path d="M395.539 218.381L395.502 218.341L391.938 221.666L395.262 225.231L395.539 224.974L398.827 221.905L395.539 218.381ZM395.282 224.701L392.467 221.686L395.482 218.87L395.539 218.93L398.298 221.889L395.539 224.462L395.282 224.701Z" fill="#EFEFEF"/>
<path d="M437.512 204.068V208.941H442.387V204.068H437.512ZM442.011 208.568H437.888V204.441H442.011V208.568Z" fill="#EFEFEF"/>
<path d="M525.705 242.345V247.218H530.581V242.345L525.705 242.345ZM530.204 246.845H526.081V242.718H530.204V246.845Z" fill="#EFEFEF"/>
<path opacity="0.2" d="M380.23 123.997V264.582C376.767 262.062 373.435 259.367 370.245 256.508V132.178C373.434 129.285 376.767 126.555 380.23 123.997Z" fill="black"/>
<path opacity="0.2" d="M405.523 108.876V279.417C402.088 277.81 398.76 276.112 395.539 274.325V114.078C398.76 112.257 402.088 110.523 405.523 108.876Z" fill="black"/>
<path opacity="0.2" d="M430.816 98.9903V289.02C427.421 288.005 424.093 286.909 420.832 285.735V102.389C424.09 101.177 427.418 100.044 430.816 98.9903Z" fill="black"/>
<path opacity="0.2" d="M456.109 92.8428V294.888C452.734 294.322 449.406 293.682 446.125 292.967V94.873C449.403 94.1242 452.731 93.4474 456.109 92.8428Z" fill="black"/>
<path opacity="0.2" d="M481.402 89.784V297.667C478.041 297.487 474.713 297.236 471.418 296.915V90.646C474.713 90.2898 478.041 90.0025 481.402 89.784Z" fill="black"/>
<path opacity="0.2" d="M506.695 89.5143V297.65C503.397 297.83 500.069 297.94 496.711 297.98V89.2947C500.066 89.298 503.394 89.3712 506.695 89.5143Z" fill="black"/>
<path opacity="0.2" d="M531.988 92.0273V294.858C528.7 295.41 525.372 295.892 522.004 296.302V90.6893C525.369 91.062 528.697 91.5081 531.988 92.0273Z" fill="black"/>
<path opacity="0.2" d="M557.282 97.5924V289.013C554.01 289.988 550.682 290.888 547.297 291.712V95.0029C550.682 95.7884 554.01 96.6516 557.282 97.5924Z" fill="black"/>
<path opacity="0.2" d="M582.575 106.805V279.517C579.333 281.015 576.005 282.429 572.59 283.761V102.672C576.002 103.966 579.33 105.344 582.575 106.805Z" fill="black"/>
<path opacity="0.2" d="M607.868 121.051V264.985C604.686 267.249 601.358 269.412 597.884 271.476V114.677C601.351 116.698 604.679 118.822 607.868 121.051Z" fill="black"/>
<path opacity="0.2" d="M633.161 144.576V241.177C630.094 245.111 626.758 248.828 623.177 252.301V133.566C626.759 136.998 630.095 140.677 633.161 144.576Z" fill="black"/>
</svg>
