<svg width="96" height="96" viewBox="0 0 96 96" fill="none" xmlns="http://www.w3.org/2000/svg">
<path d="M57.999 21C59.103 21 59.999 20.104 59.999 19V15C59.999 13.896 59.103 13 57.999 13C56.894 13 55.999 13.896 55.999 15V19C55.999 20.104 56.894 21 57.999 21ZM70.555 45.188C71.5 43.273 71.999 41.167 71.999 39C71.999 31.28 65.719 25 57.999 25C53.398 25 49.104 27.281 46.503 31.021C46.335 31.016 46.169 31 46 31C38.336 31 31.781 36.012 29.688 43.184C29.112 43.079 28.507 43 28 43C21.935 43 17 47.935 17 54C17 60.065 21.935 65 28 65H39.263L35.336 70.891C34.927 71.504 34.889 72.293 35.236 72.944C35.585 73.594 36.263 74 37 74H39.263L35.336 79.891C34.724 80.81 34.972 82.052 35.891 82.664C36.231 82.892 36.617 83 36.998 83C37.644 83 38.278 82.687 38.664 82.109L44.664 73.109C45.073 72.496 45.111 71.707 44.764 71.056C44.415 70.406 43.737 70 43 70H40.737L44.07 65H49.262L47.335 67.891C46.926 68.504 46.888 69.293 47.235 69.944C47.585 70.594 48.263 71 49 71H51.263L49.336 73.891C48.724 74.81 48.972 76.052 49.891 76.664C50.231 76.892 50.617 77 50.998 77C51.644 77 52.278 76.687 52.664 76.109L56.664 70.109C57.073 69.496 57.111 68.707 56.764 68.056C56.415 67.406 55.737 67 55 67H52.737L54.07 65H64C70.065 65 75 60.065 75 54C75 50.393 73.246 47.194 70.555 45.188ZM57.999 29C63.513 29 67.999 33.486 67.999 39C67.999 40.549 67.639 42.051 66.964 43.417C66.019 43.152 65.028 43 64 43C63.492 43 62.888 43.079 62.311 43.184C60.703 37.673 56.456 33.449 51.1 31.783C52.938 30.03 55.396 29 57.999 29ZM64 61H28C24.141 61 21 57.859 21 54C21 50.141 24.141 47 28 47C28.277 47 28.723 47.068 29.193 47.162V49C29.193 50.104 30.088 51 31.193 51C32.298 51 33.193 50.104 33.193 49V45.781C34.266 39.528 39.629 35 46 35C52.37 35 57.733 39.528 58.807 45.782V49C58.807 50.104 59.703 51 60.807 51C61.911 51 62.807 50.104 62.807 49V47.163C63.277 47.069 63.726 47 64 47C67.859 47 71 50.141 71 54C71 57.859 67.859 61 64 61ZM72.142 26.857C72.654 26.857 73.165 26.662 73.556 26.271L76.384 23.443C77.165 22.662 77.165 21.396 76.384 20.615C75.603 19.834 74.337 19.834 73.556 20.615L70.728 23.443C69.947 24.224 69.947 25.49 70.728 26.271C71.118 26.662 71.63 26.857 72.142 26.857ZM42.443 26.271C42.834 26.662 43.345 26.857 43.857 26.857C44.369 26.857 44.88 26.662 45.271 26.271C46.052 25.49 46.052 24.224 45.271 23.443L42.443 20.615C41.662 19.834 40.396 19.834 39.615 20.615C38.834 21.396 38.834 22.662 39.615 23.443L42.443 26.271ZM81.999 37H77.999C76.894 37 75.999 37.896 75.999 39C75.999 40.104 76.894 41 77.999 41H81.999C83.103 41 83.999 40.104 83.999 39C83.999 37.896 83.103 37 81.999 37Z" fill="white"/>
</svg>
